<?xml version="1.0" encoding="UTF-8"?>
<!DOCTYPE svg PUBLIC "-//W3C//DTD SVG 1.1//EN" "http://www.w3.org/Graphics/SVG/1.1/DTD/svg11.dtd">
        <svg
            id="spinner_svg"
            xmlns="http://www.w3.org/2000/svg"
            viewBox="0 0 200 200"
            width="100%"
            height="100%"
            
            >
            <desc>Animated JavaScript SVG - EL</desc>
            
            <circle cx="100" cy="100" r="85" fill="lightgreen" stroke="none" opacity="0.65" />
            
            <g id="spinner-shapes">
                <line x1="100" y1="10" x2="100" y2="190" stroke="#B8860B" stroke-width="2" transform="rotate(30 100 100)"/>
                <line x1="100" y1="10" x2="100" y2="190" stroke="#B8860B" stroke-width="2" transform="rotate(90 100 100)"/>
                <line x1="100" y1="10" x2="100" y2="190" stroke="#B8860B" stroke-width="2" transform="rotate(150 100 100)"/>
                <line x1="100" y1="10" x2="100" y2="190" stroke="#B8860B" stroke-width="2" transform="rotate(210 100 100)"/>
                <line x1="100" y1="10" x2="100" y2="190" stroke="#B8860B" stroke-width="2" transform="rotate(270 100 100)"/>
                <line x1="100" y1="10" x2="100" y2="190" stroke="#B8860B" stroke-width="2" transform="rotate(330 100 100)"/>
                
                <polygon class="triangle" points="100,10 120,80 80,80" fill="red" />
                <polygon class="triangle" points="100,10 120,80 80,80" fill="blue" transform="rotate(60, 100, 100)" />
                <polygon class="triangle" points="100,10 120,80 80,80" fill="green" transform="rotate(120, 100, 100)" />
                <polygon class="triangle" points="100,10 120,80 80,80" fill="yellow" transform="rotate(180, 100, 100)" />
                <polygon class="triangle" points="100,10 120,80 80,80" fill="orange" transform="rotate(240, 100, 100)" />
                <polygon class="triangle" points="100,10 120,80 80,80" fill="purple" transform="rotate(300, 100, 100)" />
                
                <line x1="100" y1="10" x2="100" y2="190" stroke="#FF6F61" stroke-width="2"/>
                <line x1="100" y1="10" x2="100" y2="190" stroke="#FF6F61" stroke-width="2" transform="rotate(60 100 100)"/>
                <line x1="100" y1="10" x2="100" y2="190" stroke="#FF6F61" stroke-width="2" transform="rotate(120 100 100)"/>
                <line x1="100" y1="10" x2="100" y2="190" stroke="#FF6F61" stroke-width="2" transform="rotate(180 100 100)"/>
                <line x1="100" y1="10" x2="100" y2="190" stroke="#FF6F61" stroke-width="2" transform="rotate(240 100 100)"/>
                <line x1="100" y1="10" x2="100" y2="190" stroke="#FF6F61" stroke-width="2" transform="rotate(300 100 100)"/>
                
                <circle cx="100" cy="100" r="90" fill="none" stroke="purple" stroke-width="10" opacity="1" />
                <polygon
                    points="117.5,67.5 141.25,100 117.5,132.5 82.5,132.5 58.75,100 82.5,67.5"
                    fill="pink"
                    stroke="cyan"
                    stroke-width="5"
                />
                <polygon
                    points="110,80 125,100 110,120 90,120 75,100 90,80"
                    fill="beige"
                    stroke="orange"
                    stroke-width="5"
                />
                <circle cx="100" cy="100" r="5" fill="none" stroke="maroon" stroke-width="10" opacity="1"/>
                <circle cx="100" cy="100" r="1" fill="none" stroke="white" stroke-width="10" opacity="1"/>
            </g>
        </svg>

    
    